<svg id="Layer_1" data-name="Layer 1" xmlns="http://www.w3.org/2000/svg" viewBox="0 0 572.09 539.23"><defs><style>.cls-1{fill:#00999e;}</style></defs><title>rasun</title><path class="cls-1" d="M52.17,521.38c-2-1.8-4.71-3.21-3.7-6.7,1.13-3.89,4.29-3.49,7.26-3.48,3.49,0,7,0,10.48.05,2.1.05,3.09-.76,2.91-2.93-.1-1.16,0-2.33,0-3.49,0-94.58.26-189.16-.27-283.73-.08-14.64,14.17-26.22,26-26.08,36.41.43,72.82.15,109.23.1,8.78,0,7.41,1.2,7.51-7.76.05-4.82,0-9.64.06-14.46,0-3.31,1.63-4.66,5-4.67s5,1.49,5.11,4.65c.12,6.15.21,12.31,0,18.45-.12,3.09.82,3.89,3.9,3.88q71.82-.15,143.64,0c3.14,0,4.4-.63,4.23-4.06-.29-5.8-.07-11.63-.08-17.45,0-3.59,1.42-5.49,5.36-5.46s4.83,2.11,4.82,5.38c0,5.65.24,11.32-.08,17-.22,3.86,1.19,4.68,4.83,4.67,36.74-.11,73.49.06,110.23-.08,11.33,0,19.65,4.45,25.31,14.26,1.83,3.18,2.21,6.46,2.21,10q0,136.38,0,272.76c0,5.15-.33,10.33.07,15.45s-3,5.26-6.33,5.5c-4.16.3-3.69-3-3.7-5.55-.07-11,0-21.95,0-32.92V221.8c0-10.71-5.75-16.56-16.45-16.56q-201.75,0-403.5,0c-11.38,0-17,5.68-17,17q0,141.85.15,283.73c0,5.14-1.28,8.08-6.13,9.39-2.13.65-4.39.84-6.43,1.79-3.83,1.44-7.89,2.24-11.53,4.18Z"/><path class="cls-1" d="M380.47,452.6c28.26,0,56.52-.25,84.77.15,8,.12,14.21-4.7,14.13-13.85-.32-37.39-.1-74.78-.12-112.17,0-9.08-2.82-12.27-11.94-13.81-3.28-.55-5.21-2.53-4.9-5.75.29-3,2.3-4.45,5.55-4.37,11.6.29,17.59,6.86,20.09,17.48a44.14,44.14,0,0,1,.8,9.9c.06,35.89,0,71.78.1,107.68A32.15,32.15,0,0,1,484,455.25c-2.69,4.33-7.54,5.05-11.92,6.21a33.25,33.25,0,0,1-8.42.66q-83,0-166-.05a41.38,41.38,0,0,1-12.25-1.47c-8.68-2.66-12.53-9.3-12.75-17.42-.58-21.43-.41-42.87-.46-64.3,0-17.45.2-34.9,0-52.35-.13-10.62,6.24-21.18,15.06-23a36.08,36.08,0,0,1,7.35-.66q67.32-.08,134.64,0c3.44,0,7-.14,7,4.75s-3.38,5.35-7.15,5.35H295.46c-9.47,0-13.85,4.41-13.85,13.91V439.51c0,8.66,4.39,13.07,13.09,13.08Q337.59,452.64,380.47,452.6Z"/><path class="cls-1" d="M234.68,510.4c.11-4.13.32-8.26.32-12.39q.06-76,.06-152.06c0-7.63-1-8.69-8.54-8.69q-48.12,0-96.24.12c-6.92,0-8.25,1.38-8.25,8q0,82,.08,164c0,2.61-.54,4.1-3.06,3.55s-6.51,1.67-7-3.22c-.16-1.65-.07-3.32-.07-5,0-53.35.24-106.69-.24-160-.09-10.5,8.72-16.82,16.78-16.81,33.41,0,66.82,0,100.23.06,9.37,0,15.93,7,15.93,16.5q0,79.53,0,159c0,9.5,0,9.5-9.66,9.7C232.88,512.56,233.25,511.55,234.68,510.4Z"/><path class="cls-1" d="M380.76,377.22c12.95,0,25.91-.05,38.86,0,2.52,0,5.44-.45,6.7,2.88,1.65,4.32-.71,7.46-6.07,7.52-10,.12-19.93.22-29.89-.06-3.72-.1-4.75.85-4.69,4.64.24,14.11.12,28.22.09,42.34,0,3,.11,6.2-3.87,7s-6.46-1.54-6.48-6.49c-.06-14-.21-27.9.08-41.84.09-4.4-.87-5.88-5.54-5.68-9.62.41-19.26.14-28.9.1-2.87,0-5.76-.17-6.65-3.74-1.09-4.46.94-6.72,6.5-6.77,12.12-.09,24.25,0,36.37,0h3.49Z"/><path class="cls-1" d="M466.21,400.19c0,11.79,0,23.58,0,35.36,0,3.71-1,6.18-5.25,6.09-4-.08-5-2.52-4.85-5.95a8.34,8.34,0,0,0,0-1c-.32-4.24,1.88-9.89-.93-12.34-2.39-2.08-7.89-.65-12-.69-4.49-.05-9,.17-13.45-.08-2.93-.16-3.67.92-3.51,3.65.21,3.81.08,7.64,0,11.46,0,3.51-1.91,5.08-5.38,4.95-3.32-.12-4.7-1.92-4.68-5.1,0-4-.06-8,0-12,0-1.93-.24-2.91-2.59-3.07-2.73-.18-4.62-1.92-4.33-5,.33-3.4,2.75-4.1,5.69-4.09,11.63,0,23.26-.21,34.87.13,4.8.14,6.58-.77,6.4-6.12-.46-13.6-.06-27.23-.2-40.84,0-3.72,1.11-6.54,4.92-6.6,4.09-.06,5.31,2.86,5.25,6.78C466.1,377.28,466.21,388.73,466.21,400.19Z"/><path class="cls-1" d="M296.33,400.57c0-11.63.08-23.26,0-34.89,0-3.61.88-6.61,4.84-6.61s5.49,2.81,5.46,6.76c-.1,14.13.09,28.25-.13,42.37,0,3.56,1,4.42,4.45,4.36,11.63-.2,23.26,0,34.9-.09,3.1,0,6,.45,6.37,3.95.32,3-1.77,5-4.8,5.15-2.05.13-1.94,1.22-1.93,2.6,0,4,.07,8,0,12-.07,3.48-1.62,5.63-5.44,5.51-4.1-.13-4.13-2.59-3.8-5.81.37-3.62-.05-7.31.18-10.95.16-2.77-1-3.32-3.49-3.28-7.65.13-15.3.2-22.93,0-3-.08-3.61,1-3.45,3.7.21,3.48.07,7,.05,10.46s-1.17,5.8-5.07,5.92-5.16-2.24-5.16-5.69Q296.32,418.26,296.33,400.57Z"/><path class="cls-1" d="M149.29,409.28c-8.41,0-16.12,7-16.31,14.88a16.5,16.5,0,0,0,15.84,16.45c8.43.11,16.09-7.62,16.05-16.19C164.83,416.9,157,409.27,149.29,409.28ZM149,429.72c-4-.22-5.74-2.75-5.58-6.11a5.76,5.76,0,0,1,6.12-5.83c3.84.09,4.2,3.47,4.9,6.21C153.77,427.06,153.16,430,149,429.72Z"/><path class="cls-1" d="M457.48,91.38c-1.57-13.77-10.12-23.49-19.75-32.19C426.25,48.83,411.9,43.56,397.56,38.6A268.56,268.56,0,0,0,296,23.94c-22.78-1.34-46.89,1.23-70.77,6.69-13.49,3.09-26.47,7.6-39.41,12.44-17.2,6.43-31.7,16.11-41.88,31.65-2.73,4.16-5,8.6-5.88,13.52-2.77,16,4.25,28.47,15.41,38.75,12.43,11.46,27.61,18.61,43.29,24.4,28.13,10.39,57.49,14.68,87.3,15.83a337.61,337.61,0,0,0,49.74-1.7c25.68-2.79,50.77-7.67,74.51-18.19,14.89-6.6,29.22-14.14,39.74-27.14C454.77,111.81,458.75,102.42,457.48,91.38Zm-11,9.92c-3.43,12.8-12,20.89-23.45,27.13-15.43,8.4-31.31,15.3-48.39,19.45a321,321,0,0,1-94.1,8.72C252,155,224.05,150.73,197.4,140.31c-14.21-5.55-28.82-11.21-39.58-22.67-13.36-14.21-13.33-29.92-.86-44.3A56.27,56.27,0,0,1,170,62.69,162.8,162.8,0,0,1,223.4,41.53,378.74,378.74,0,0,1,299,33.18c24.4.32,49.68,3.54,74.89,8.94a159,159,0,0,1,54.28,22.7c7.93,5.17,14.17,11.9,17.62,20.88A24.8,24.8,0,0,1,446.5,101.3Z"/><path class="cls-1" d="M350.76,81.67c-4.16,4.07-9.48,6-14.89,7.37-3.64.94-7.6,1.36-11.71-1.09,6.59-4.75,11.55-10.32,16.83-15.54,2.56-2.53,3.42-5.41.48-8.17-2.76-2.59-5.44-1.51-7.83.81l-16.49,16c-1.47-7.9-.3-15,4-21.47,1.36-2.06,3.12-3.87,4.41-6,1.64-2.66.36-4.92-1.9-6.34-2.06-1.3-4.33-1.43-6,1.09-.82,1.23-1.92,2.27-2.8,3.47-7.79,10.65-12.34,21.91-5.95,34.91,1,2.13,0,3-1.14,4.17-3.5,3.54-7,7.12-10.91,11.17a26.41,26.41,0,0,0-3.44-4c-3.11-2.39-4.14-4.73-2.1-8.66a15.59,15.59,0,0,0,1.28-8.25c-1.09-13.42-13-28.57-25.79-32.48C252.3,44.28,238.28,51.45,235.93,65c-2.07,11.83,2.9,21.45,11.36,29.17,8.08,7.36,17.58,12.34,28.84,9.31,5-1.33,8.23-1.26,11.13,3,.6.88,1.88,1.29,2.94,2-8.79,8.47-15.86,17.27-24.48,24.54a13.54,13.54,0,0,0-2.7,2.91,5.09,5.09,0,0,0,7.18,7,13,13,0,0,0,3.26-3.06c6.64-9,16.05-15.24,23.65-23.66,7,8.44,16.56,14,22.86,22.95,2.06,2.92,5.26,3.83,8.12,1.13s2-5.62-.62-8.21c-4.3-4.29-9.13-8-13-12.84-2.95-3.71-6.49-7-9.76-10.41,3.49-3.55,7-7.11,10.48-10.65,1-1,1.63-1.81,3.66-1,13.71,5.51,28.31,2,38.5-8.81,2.06-2.18,3.2-4.34.74-6.84S353.16,79.33,350.76,81.67Zm-80.64,12c-11.08-.15-23.23-11.28-24.35-22.31-.91-8.92,6.24-15.34,15-13.47,10.65,2.26,19.2,11.67,20.83,22.6C282.59,87.05,277.44,94.93,270.12,93.62Z"/></svg>