<svg id="Layer_1" data-name="Layer 1" xmlns="http://www.w3.org/2000/svg" viewBox="0 0 514.72 501.19"><defs><style>.cls-1{fill:#00999e;}</style></defs><title>rasun</title><path class="cls-1" d="M497.57,308.12c.13-14.15-2.27-27.59-6.06-40.93-8.1-28.46-16.55-56.82-24.86-85.22-2.11-7.21-3.82-8.53-11.17-8.53H359.71c-9.83,0-9.77,0-8.87-9.68q3.44-37.15,6.76-74.31c.5-5.62-3-9.48-8.68-9.77a20.41,20.41,0,0,0-4.49,0c-10.36,1.77-17.72-.91-19.22-12.61a2.66,2.66,0,0,0-.43-.9c-6.59-11.11-11.74-22.95-17.66-34.4-5.37-10.42-5.2-10.36-16-5.06-2.87,1.41-2.89,2.55-1.55,5.1,6,11.41,11.17,23.25,17.64,34.43,2.44,4.21,4.36,8.71,6.65,13.34h-100c7.47-14.56,14.66-28.5,21.77-42.46,4.53-8.89,4.44-8.81-4.56-13.3-3.93-2-6.05-1.29-7.94,2.88-7.56,16.69-17.06,32.45-24,49.43-1.1,2.69-2.61,3.75-5.59,3.58-4.8-.27-9.64-.17-14.46,0-5.61.15-9.22,3.77-8.85,9.09.59,8.44,1.45,16.85,2.18,25.28,1.58,18.17,3,36.35,4.83,54.5.43,4.36-1,5-5,5-33.58-.18-67.17-.11-100.75-.1-6,0-8.49,1.88-10.11,7.41-7.89,26.81-16,53.55-23.53,80.47-3,10.74-7.22,21.45-7.27,32.69-.27,60.18-.13,120.37-.12,180.55,0,7.16,3,10.13,10.17,10.13H487c7.46,0,10.32-2.91,10.32-10.48C497.35,418.85,497,363.48,497.57,308.12ZM195.37,95.62h68.79c24.09,0,48.18.09,72.27-.09,3.75,0,4.74.8,4.37,4.58-1.71,17.81-3.14,35.65-4.68,53.48-.45,5.12-1.41,10.26-1.21,15.35.18,4.44-1.82,4.57-5.2,4.56-32.07-.09-64.13-.05-96.2-.05-12.13,0-24.26-.12-36.39.07-3.23,0-3.91-.88-4.16-4.08q-2.57-32.2-5.74-64.36C186.28,95.59,186,95.62,195.37,95.62ZM49,278.33Q61.59,235.78,73.8,193.1c1-3.46,2.31-4.63,6-4.62,44.71.15,89.42.08,134.12.08H263.8q91.74,0,183.49-.08c3.89,0,5.73.84,6.87,4.88q12,42.48,24.65,84.79c1.09,3.66.24,4.09-3.1,4.08-20.11-.12-40.22-.17-60.33,0-3.6,0-3.9-1.34-3.88-4.27.12-15.63.07-31.25.05-46.87,0-8.51-2.36-10.81-10.94-10.81H126.88c-8.22,0-10.6,2.37-10.61,10.63,0,15.78-.08,31.57,0,47.36,0,2.88-.43,4-3.7,3.95-20.28-.18-40.55-.15-60.83,0C48.47,282.26,48,281.54,49,278.33ZM294.8,235.58h59.06c-6.78,1.68-11.59,4.61-15.13,9.29a23.2,23.2,0,0,0-4.91,15.73c.62,9.91,7.81,17.8,18.85,21.49H294.81c4.59-7.2,8.21-14.53,8-23A41.79,41.79,0,0,0,294.8,235.58Zm54.9,23.64a8,8,0,1,1,7.61,8A7.69,7.69,0,0,1,349.7,259.22Zm25.86,13.61c4-4.12,5.13-9.19,5-14.53-.29-10.08-7.81-19.38-17.66-23,10.28,0,20.56.09,30.84-.06,2.57,0,2.93,1,2.92,3.18-.09,13.59-.11,27.19,0,40.79,0,2.42-.71,3.06-3.07,3-10.28-.12-20.56-.05-31-.3C368,280.32,371.82,276.69,375.56,272.83ZM286.9,259.45c.2,15.23-12.76,23.07-23.28,22.8-13.27-.34-22.7-9.82-22.66-23.39,0-14,9.4-23.58,23-23.57S286.71,245,286.9,259.45Zm-155.72-21c0-2.23.37-3.21,2.93-3.17,10.28.15,20.56.06,31,.29a27.16,27.16,0,0,0-13,9.55,23.48,23.48,0,0,0-4.82,15.73c.45,10.32,10.34,18.78,17.85,21.38-10.29,0-20.57-.07-30.85.05-2.36,0-3.09-.61-3.07-3Q131.34,258.8,131.18,238.4Zm31,21.07a8,8,0,1,1,7.86,7.74A7.7,7.7,0,0,1,162.15,259.47Zm31.91-.39c-.08-10.87-7.32-19.81-19.82-23.48h58.58c-9.93,15.27-10.91,30.66.26,46.29H174C186.86,278.18,194.14,269.48,194.06,259.08ZM115,421.12c10.39-1.38,20.81-2,31.27-.53,8.39,1.14,8.91,1.62,8.91,9.8s0,8.26-8.33,8.25h-15c-6.65,0-13.3-.12-19.95.05-2.67.06-4-.51-3.7-3.5a21.51,21.51,0,0,0,0-6.46C107,423,110.73,421.69,115,421.12Zm4.67-29.2c10.64,0,21.27.08,31.91-.06,2.66,0,3.65.48,3.68,3.45.13,11.57.25,11.57-11.46,11.57H131.32c-6.64,0-13.29-.08-19.94.05-2.25,0-3.08-.42-3.18-2.94C107.71,391.91,107.61,391.92,119.66,391.92Zm23.17,77.81H131.36c-6.48,0-13-.11-19.44.06-2.61.06-3.69-.38-3.73-3.41-.17-12.61-.29-12.61,12.43-12.61,10.3,0,20.6.08,30.9,0,2.62,0,3.7.37,3.74,3.4C155.43,469.73,155.55,469.73,142.83,469.73Zm43.34-4c0,3.19-.73,4.14-4,4.12-12-.08-12,.06-12-12q0-35.4,0-70.79c0-8.2-2.83-11-11-11q-28.17,0-56.34,0c-7.49,0-10.46,3-10.47,10.55,0,26.25-.09,52.51.1,78.77,0,3.81-1,4.62-4.64,4.55-11.25-.22-11.26-.05-11.26-11.4q0-29.67,0-59.33h0c0-21.77.07-43.54-.07-65.31,0-3.41.4-4.86,4.45-4.83q50.61.29,101.21,0c3.29,0,4.06.88,4,4.1Q186,399.39,186.17,465.7Zm65.75,4.11q-23.19-.26-46.38,0c-3.49,0-4.4-.88-4.38-4.38.17-22.11.09-44.22.08-66.32,0-21.78.12-43.55-.11-65.32,0-4.05,1.18-4.87,5-4.82q22.93.31,45.87,0c3.34,0,4,.95,4,4.13q-.17,66.31,0,132.64C256,469,255.15,469.85,251.92,469.81Zm70.33,0q-23.19-.29-46.37,0c-3.28,0-4.07-.86-4.06-4.09q.15-66.32,0-132.63c0-3.22.75-4.15,4.05-4.11q23.17.28,46.37,0c3.43,0,4.44.78,4.41,4.34-.17,22.1-.08,44.21-.08,66.32,0,21.94-.08,43.88.09,65.81C326.69,469,325.7,469.86,322.25,469.81Zm50.4-39.45c0-8.22,0-8.26,8.38-9.65,11.24-1.86,22.49-.58,33.71.32,3,.25,5,2,4.91,5.86-.2,11.74,0,11.74-11.87,11.75H395.84c-6.64,0-13.28-.13-19.91.06-2.65.07-3.59-.76-3.31-3.36A48.43,48.43,0,0,0,372.65,430.36Zm35.54-23.48H395.73c-6.65,0-13.3-.07-19.94,0-2.2,0-3.11-.32-3.22-2.9-.52-12.11-.62-12.1,11.43-12.1,10.63,0,21.27.07,31.9-.06,2.62,0,3.69.39,3.73,3.42C419.76,406.88,419.89,406.88,408.19,406.88Zm-1,62.85c-10.13,0-20.28-.18-30.4.1-3.63.1-4.31-1-4.27-4.42.15-11.64,0-11.64,11.4-11.64h12.46c6.48,0,13,.1,19.44,0,2.57-.06,3.73.28,3.77,3.37C419.8,469.73,419.93,469.73,407.23,469.73Zm44.12-4.08c0,3.2-.75,4.18-4.08,4.17-11.77,0-11.77.11-11.77-11.77q0-35.64,0-71.29c0-7.89-2.9-10.8-10.73-10.8H368.44c-7.85,0-10.75,2.9-10.75,10.77,0,26.26-.08,52.52.09,78.78,0,3.53-.9,4.36-4.36,4.31-11.69-.16-11.7,0-11.7-11.84V399.15c0-21.94.09-43.88-.08-65.81,0-3.46.77-4.38,4.31-4.36q50.6.22,101.2,0c3.15,0,4.22.63,4.21,4Q451.18,399.35,451.35,465.65Zm31.14-.95c0,4.08-.83,5.28-5.06,5.15-11-.33-11-.1-11-11.08q0-67.08,0-134.16c0-9-1.67-10.68-10.73-10.68h-383c-9.75,0-11.27,1.52-11.27,11.15,0,46.55-.06,93.1.11,139.65,0,4.13-.92,5.25-5.1,5.13-11-.32-11-.1-11-11.1,0-51.87,0-103.74-.11-155.61,0-4.15,1-5.11,5.11-5.1q107,.21,214,.1,106.49,0,213-.1c4.08,0,5.15.86,5.14,5.06Q482.25,383.91,482.49,464.7Z"/></svg>