<svg id="Layer_1" data-name="Layer 1" xmlns="http://www.w3.org/2000/svg" viewBox="0 0 563.74 557.64"><defs><style>.cls-1{fill:#00999e;}</style></defs><title>rasun</title><path class="cls-1" d="M537.36,522.43c-4.78,10.79-13.13,14.12-24.72,14.1q-168.9-.43-337.81-.18c-8.13,0-11.64-2.25-11.69-7.5s3.43-7.52,11.6-7.52H513.05c9.23,0,9.36-.14,9.36-9.59V399.47c0-6.61-.92-7.58-7.37-7.58H48.5c-6.22,0-7.18,1-7.18,7.26q0,57.39,0,114.77c0,6.53.88,7.4,7.53,7.4h87.82a35.94,35.94,0,0,1,5,.14c4,.57,6.21,3,6.43,7s-2,6.57-5.76,7.66a16.5,16.5,0,0,1-4.46.23q-45.41,0-90.82,0c-13.08,0-20.66-7.64-20.66-20.79q0-59.13,0-118.25c0-12.76,7.71-20.5,20.49-20.5q73.6,0,147.2,0h6.26v-37H95c-12.25,0-18.65-6.46-18.65-18.82q0-134.22,0-268.45c0-12.62,6.4-19,19-19.06,19.46,0,38.92,0,58.38,0,4.91,0,8.25,3.21,8.3,7.46s-3.28,7.29-8.22,7.51c-1.32.06-2.66,0-4,0-17.63,0-35.26.13-52.89-.1-4.4,0-5.64,1.28-5.63,5.66q.16,132.48,0,265c0,4.5,1.11,5.95,5.83,5.95q184.11-.19,368.24,0c4.95,0,6.07-1.55,6.07-6.23q-.18-132,0-263.95c0-5.09-1.41-6.41-6.45-6.4q-137.73.22-275.44.1a56.73,56.73,0,0,1-6-.12c-4-.44-6.31-2.82-6.58-6.84-.29-4.29,2-6.92,6-7.89a21.62,21.62,0,0,1,5-.16H466.88c13.13,0,19.49,6.39,19.49,19.62q0,133.73,0,267.45c0,12.87-6.41,19.26-19.28,19.26H362.15v37h5.75c48.07,0,96.14.24,144.2-.17,11.67-.1,20.35,3.06,25.26,14.07ZM346.43,376.63V340.11H216.25v36.52Z"/><path class="cls-1" d="M281.23,305.67H122.56c-10,0-12.09-2.11-12.09-11.93q0-107.28,0-214.55c0-9.29,2.22-11.53,11.46-11.54H440.77c9.05,0,11.3,2.19,11.3,11.15q0,107.77,0,215.55c0,8.95-2.36,11.3-11.18,11.31Zm155.19-15.51V83.43H126.29V290.16Z"/><path class="cls-1" d="M249.47,448.91q64.85,0,129.69,0c8.09,0,11.7,2.3,11.82,7.5.13,5.4-3.61,7.89-11.92,7.89H118.68c-8.05,0-11.69-2.32-11.82-7.5-.15-5.4,3.59-7.89,11.92-7.89Q184.12,448.9,249.47,448.91Z"/><path class="cls-1" d="M464.42,427.24a29.41,29.41,0,1,1-.16,58.82,29.41,29.41,0,0,1,.16-58.82Zm.15,15.24a14.12,14.12,0,1,0,14,14.21A13.88,13.88,0,0,0,464.57,442.48Z"/><path class="cls-1" d="M144.13,186.42q0-32.68,0-65.36c0-12.12,6.62-18.94,18.74-19q65.61-.12,131.23,0c12,0,18.65,7,18.65,19.11q0,65.13,0,130.24c0,12.35-7.08,19.35-19.56,19.36q-64.87,0-129.74,0c-12.47,0-19.31-6.93-19.32-19.52Q144.1,218.86,144.13,186.42Zm102.46-43.48v-25.4H210.1v25.4Zm-87.5-.12h35.26V117.17c-10.85,0-21.44-.1-32,.15-1.11,0-3,2.11-3.09,3.3C159,127.9,159.09,135.2,159.09,142.82Zm138.64.12c0-7.68.13-15.09-.13-22.49,0-1.12-1.8-3.11-2.8-3.13-10.72-.23-21.44-.14-32.4-.14v25.76ZM210.11,255.25H246.7V232H210.11ZM194.3,232H159.11c0,7-.14,13.81.14,20.57a4.34,4.34,0,0,0,3,3c10.57.22,21.15.13,32,.13Zm68.13,0v23.69c10.93,0,21.54.09,32.13-.14,1.08,0,3-1.93,3-3,.28-6.75.14-13.53.14-20.53Zm-52.38-52.39h36.59v-21H210.05Zm87.41-20.92H262.55v21h34.91Zm-103.2-.14H159.39v21.19h34.87Zm52.57,36.83h-36.7v20.55h36.7Zm-52.43.05h-35v20.53h35Zm68,20.46h35V195.43h-35Z"/><path class="cls-1" d="M377.33,206.88c9,0,17.94-.12,26.9,0,10.23.16,16.29,6.41,16.33,16.6q.06,15,0,29.9c-.05,9.67-6.53,16.34-16.15,16.39q-27.17.15-54.31,0c-9.35-.05-16.05-6.68-16.19-16-.15-10.3-.13-20.6,0-30.89.12-9.41,6.52-15.83,16-16C359.06,206.76,368.19,206.89,377.33,206.88ZM349,222.17c0,9.45.18,18.7-.08,27.93-.12,3.94,1.43,4.67,5,4.63,15.76-.15,31.52,0,47.27-.08,1.41,0,2.81-.27,4-.39V222.17Z"/><path class="cls-1" d="M379.18,136.63c7,0,13.92-.08,20.89,0,5.69.08,9.26,3.05,9.33,7.49.07,4.61-3.7,7.77-9.6,7.8q-20.88.09-41.77,0c-6.17,0-9.45-2.86-9.39-7.81.06-4.79,3.12-7.4,9.15-7.49C364.92,136.55,372.05,136.63,379.18,136.63Z"/><path class="cls-1" d="M378.67,183.9c-7,0-13.93.08-20.89,0-5.86-.08-9.07-2.83-9.14-7.57s3-7.67,8.9-7.71q21.39-.15,42.77,0c5.57,0,9.19,3.28,9.09,7.72s-3.73,7.48-9.35,7.56C392.93,184,385.8,183.9,378.67,183.9Z"/></svg>